<svg width="100" height="79" viewBox="0 0 100 79" fill="none" xmlns="http://www.w3.org/2000/svg">
<g id="Group">
<g id="Group_2">
<g id="Group_3">
<path id="Vector" d="M96.673 12.2624C94.6768 10.1711 91.9202 8.93536 88.7833 8.93536H73.0038V8.74525C73.0038 6.36882 72.0532 4.08745 70.4373 2.56654C68.8213 0.95057 66.635 0 64.2586 0H35.7414C33.27 0 31.0837 0.95057 29.4677 2.56654C27.8517 4.18251 26.9011 6.36882 26.9011 8.74525V8.93536H11.2167C8.07985 8.93536 5.32319 10.1711 3.327 12.2624C1.3308 14.2586 0 17.1103 0 20.1521V67.4905C0 70.6274 1.23574 73.384 3.327 75.3802C5.32319 77.3764 8.17491 78.7072 11.2167 78.7072H88.7833C91.9202 78.7072 94.6768 77.4715 96.673 75.3802C98.6692 73.384 100 70.5323 100 67.4905V20.1521C100 17.0152 98.7643 14.2586 96.673 12.2624ZM95.057 67.4905H94.962C94.962 69.2015 94.2966 70.7224 93.1559 71.8631C92.0152 73.0038 90.4943 73.6692 88.7833 73.6692H11.2167C9.5057 73.6692 7.98479 73.0038 6.84411 71.8631C5.70342 70.7224 5.03802 69.2015 5.03802 67.4905V20.1521C5.03802 18.4411 5.70342 16.9202 6.84411 15.7795C7.98479 14.6388 9.5057 13.9734 11.2167 13.9734H29.5627C30.9886 13.9734 32.1293 12.8327 32.1293 11.4068V8.65019C32.1293 7.60456 32.5095 6.65399 33.1749 5.98859C33.8403 5.32319 34.7909 4.94297 35.8365 4.94297H64.2586C65.3042 4.94297 66.2548 5.32319 66.9202 5.98859C67.5856 6.65399 67.9658 7.60456 67.9658 8.65019V11.4068C67.9658 12.8327 69.1065 13.9734 70.5323 13.9734H88.8783C90.5894 13.9734 92.1103 14.6388 93.2509 15.7795C94.3916 16.9202 95.057 18.4411 95.057 20.1521V67.4905Z" fill="#CC800E"/>
<path id="Vector_2" d="M50 20.4373C43.5361 20.4373 37.6426 23.0989 33.4601 27.2814C29.1825 31.5589 26.616 37.3574 26.616 43.8213C26.616 50.2852 29.2776 56.1787 33.4601 60.3612C37.7376 64.6388 43.5361 67.2053 50 67.2053C56.4639 67.2053 62.3574 64.5437 66.5399 60.3612C70.8175 56.0836 73.384 50.2852 73.384 43.8213C73.384 37.3574 70.7224 31.4639 66.5399 27.2814C62.3574 23.0989 56.4639 20.4373 50 20.4373ZM62.9277 56.8441C59.6008 60.076 55.038 62.1673 50 62.1673C44.962 62.1673 40.3992 60.076 37.0722 56.8441C33.7452 53.5171 31.749 48.9544 31.749 43.9163C31.749 38.8783 33.8403 34.3156 37.0722 30.9886C40.3992 27.6616 44.962 25.6654 50 25.6654C55.038 25.6654 59.6008 27.7566 62.9277 30.9886C66.2547 34.3156 68.2509 38.8783 68.2509 43.9163C68.346 48.9544 66.2547 53.5171 62.9277 56.8441Z" fill="#CC800E"/>
<path id="Vector_3" d="M83.8403 29.6578C86.4127 29.6578 88.4981 27.5724 88.4981 25C88.4981 22.4276 86.4127 20.3422 83.8403 20.3422C81.2679 20.3422 79.1825 22.4276 79.1825 25C79.1825 27.5724 81.2679 29.6578 83.8403 29.6578Z" fill="#CC800E"/>
</g>
</g>
</g>
</svg>
