<svg width="100" height="100" viewBox="0 0 100 100" fill="none" xmlns="http://www.w3.org/2000/svg">
<g id="logo 2" clip-path="url(#clip0)">
<path id="Vector" fill-rule="evenodd" clip-rule="evenodd" d="M35.9375 0C38.4792 29.9542 12.5 40.2667 12.5 66.65C12.5 84.5708 25.2875 99.8667 50 100C74.7125 100.133 87.5 81.6083 87.5 62.6833C87.5 45.4292 78.9083 29.1583 62.7 19.0417C66.55 29.9042 61.425 39.825 56.4458 43.2417C56.7375 29.3375 51.7583 8.70417 35.9375 0ZM55.5667 54.1667C71.2125 70.7875 61.6042 91.6667 49.0375 91.6667C41.3917 91.6667 37.4583 86.3958 37.5 80.9292C37.5792 70.7917 48.9042 70.7833 55.5667 54.1667Z" fill="#CC800E"/>
</g>
<defs>
<clipPath id="clip0">
<rect width="100" height="100" fill="white"/>
</clipPath>
</defs>
</svg>
