<svg width="30" height="30" viewBox="0 0 30 30" fill="none" xmlns="http://www.w3.org/2000/svg">
<g id="cib:instagram">
<path id="Vector" d="M15.0001 0C10.9229 0 10.4148 0.0196875 8.81914 0.0871875C7.21695 0.165937 6.1332 0.414375 5.17695 0.785625C4.17614 1.16346 3.26976 1.75501 2.52102 2.51906C1.75484 3.26606 1.16295 4.17294 0.787578 5.175C0.416328 6.13125 0.167891 7.215 0.0891406 8.81719C0.0169531 10.4137 0.00195312 10.9209 0.00195312 14.9981C0.00195312 19.0753 0.0216406 19.5834 0.0891406 21.1791C0.167891 22.7766 0.416328 23.865 0.787578 24.8212C1.16541 25.8221 1.75697 26.7284 2.52102 27.4772C3.26801 28.2434 4.17489 28.8353 5.17695 29.2106C6.1332 29.5772 7.22164 29.8303 8.81914 29.9091C10.4157 29.9813 10.9229 29.9963 15.0001 29.9963C19.0773 29.9963 19.5854 29.9766 21.181 29.9091C22.7785 29.8303 23.867 29.5763 24.8232 29.2106C25.824 28.8328 26.7304 28.2412 27.4791 27.4772C28.2463 26.731 28.8383 25.8239 29.2126 24.8212C29.5791 23.865 29.8323 22.7766 29.911 21.1791C29.9832 19.5825 29.9982 19.0753 29.9982 14.9981C29.9982 10.9209 29.9785 10.4128 29.911 8.81719C29.8323 7.21969 29.5782 6.12563 29.2126 5.175C28.8347 4.17418 28.2432 3.26781 27.4791 2.51906C26.733 1.7519 25.8258 1.15986 24.8232 0.785625C23.867 0.414375 22.7785 0.165937 21.181 0.0871875C19.5845 0.015 19.0773 0 15.0001 0ZM15.0001 2.7C19.0041 2.7 19.4823 2.71969 21.0648 2.78719C22.5245 2.85563 23.3195 3.09938 23.8473 3.30562C24.4998 3.54649 25.0904 3.92986 25.576 4.42781C26.0731 4.9114 26.4551 5.50064 26.6935 6.15188C26.8998 6.67969 27.1435 7.47469 27.212 8.93437C27.2795 10.5169 27.2991 10.9959 27.2991 14.9991C27.2991 19.0022 27.2795 19.4813 27.2063 21.0638C27.1276 22.5234 26.8838 23.3184 26.6785 23.8463C26.3945 24.5503 26.0776 25.0425 25.5545 25.575C25.0672 26.0698 24.477 26.4514 23.8257 26.6925C23.3045 26.8988 22.4982 27.1425 21.0329 27.2109C19.442 27.2784 18.9732 27.2981 14.9588 27.2981C10.9445 27.2981 10.4766 27.2784 8.88383 27.2053C7.42414 27.1266 6.61883 26.8828 6.09102 26.6775C5.37852 26.3934 4.89008 26.0766 4.36695 25.5534C3.83914 25.0256 3.50352 24.5231 3.24477 23.8247C3.03477 23.3034 2.79477 22.4972 2.71695 21.0319C2.66352 19.4597 2.6382 18.9722 2.6382 14.9766C2.6382 10.9828 2.66352 10.4944 2.71695 8.9025C2.79477 7.43719 3.03477 6.63281 3.24477 6.10969C3.50352 5.39625 3.84008 4.90875 4.36695 4.38094C4.88914 3.85875 5.37852 3.52125 6.09102 3.25688C6.61883 3.05156 7.40445 2.80781 8.86977 2.73469C10.4607 2.6775 10.9295 2.65688 14.9382 2.65688L15.0001 2.7ZM15.0001 7.30031C13.9888 7.29994 12.9874 7.49885 12.0531 7.88566C11.1188 8.27248 10.2698 8.83962 9.55475 9.55468C8.8397 10.2697 8.27256 11.1187 7.88574 12.053C7.49893 12.9874 7.30002 13.9888 7.30039 15C7.30002 16.0112 7.49893 17.0126 7.88574 17.947C8.27256 18.8813 8.8397 19.7303 9.55475 20.4453C10.2698 21.1604 11.1188 21.7275 12.0531 22.1143C12.9874 22.5012 13.9888 22.7001 15.0001 22.6997C16.0113 22.7001 17.0127 22.5012 17.9471 22.1143C18.8814 21.7275 19.7303 21.1604 20.4454 20.4453C21.1605 19.7303 21.7276 18.8813 22.1144 17.947C22.5012 17.0126 22.7001 16.0112 22.6998 15C22.7001 13.9888 22.5012 12.9874 22.1144 12.053C21.7276 11.1187 21.1605 10.2697 20.4454 9.55468C19.7303 8.83962 18.8814 8.27248 17.9471 7.88566C17.0127 7.49885 16.0113 7.29994 15.0001 7.30031ZM15.0001 19.9997C12.2363 19.9997 10.0004 17.7638 10.0004 15C10.0004 12.2362 12.2363 10.0003 15.0001 10.0003C17.7638 10.0003 19.9998 12.2362 19.9998 15C19.9998 17.7638 17.7638 19.9997 15.0001 19.9997ZM24.8101 6.99281C24.8096 7.47062 24.6194 7.92869 24.2814 8.26638C23.9433 8.60407 23.4851 8.79375 23.0073 8.79375C22.771 8.79375 22.5371 8.74722 22.3188 8.65681C22.1005 8.56639 21.9022 8.43388 21.7351 8.26682C21.5681 8.09976 21.4356 7.90143 21.3451 7.68316C21.2547 7.46489 21.2082 7.23094 21.2082 6.99469C21.2082 6.75843 21.2547 6.52449 21.3451 6.30622C21.4356 6.08794 21.5681 5.88962 21.7351 5.72256C21.9022 5.5555 22.1005 5.42298 22.3188 5.33257C22.5371 5.24216 22.771 5.19562 23.0073 5.19562C23.9982 5.19562 24.8101 6.00187 24.8101 6.99281Z" fill="#F2F2F2"/>
</g>
</svg>
