<svg width="155" height="54" viewBox="0 0 155 54" fill="none" xmlns="http://www.w3.org/2000/svg">
<g id="name">
<g id="a">
<circle id="Ellipse 1" cx="27" cy="27" r="27" fill="#CC800E"/>
<rect id="Rectangle 1" x="40.95" y="27" width="13.05" height="27" fill="#CC800E"/>
<circle id="Ellipse 2" cx="26.8875" cy="26.8875" r="12.9375" fill="#5AA0C8"/>
</g>
<g id="w">
<path id="Ellipse 4" d="M114.075 27C114.075 34.1608 111.23 41.0284 106.167 46.0919C101.103 51.1554 94.2358 54 87.075 54C79.9141 54 73.0466 51.1554 67.9831 46.0919C62.9196 41.0284 60.075 34.1609 60.075 27L87.075 27H114.075Z" fill="#CC800E"/>
<circle id="Ellipse 5" cx="87.1875" cy="26.8875" r="12.9375" fill="#5AA0C8"/>
<path id="Ellipse 6" d="M154.125 27C154.125 34.1608 151.28 41.0284 146.217 46.0919C141.153 51.1554 134.286 54 127.125 54C119.964 54 113.097 51.1554 108.033 46.0919C102.97 41.0284 100.125 34.1609 100.125 27L127.125 27H154.125Z" fill="#CC800E"/>
<circle id="Ellipse 7" cx="127.237" cy="26.8875" r="12.9375" fill="#5AA0C8"/>
<rect id="Rectangle 2" x="60.075" width="14.175" height="27" fill="#CC800E"/>
<rect id="Rectangle 3" x="100.125" width="14.175" height="27" fill="#CC800E"/>
<rect id="Rectangle 4" x="140.175" width="14.175" height="27" fill="#CC800E"/>
</g>
</g>
</svg>
