<svg width="100" height="100" viewBox="0 0 100 100" fill="none" xmlns="http://www.w3.org/2000/svg">
<g id="logo 1" clip-path="url(#clip0)">
<g id="logo">
<path id="border" d="M98.5437 50C98.5437 62.8444 93.4532 75.1652 84.3872 84.2639C75.3211 93.3625 63.0185 98.4971 50.1743 98.5437C37.33 98.5893 24.9909 93.5432 15.8598 84.5099C6.72862 75.4766 1.54978 63.1926 1.45755 50.3485C1.36533 37.5045 6.36725 25.1474 15.3678 15.9839C24.3682 6.82038 36.6335 1.59747 49.4772 1.45913C62.3209 1.3208 74.6958 6.27832 83.8916 15.2458C93.0873 24.2134 98.3544 36.4598 98.5388 49.3029L98.5437 50Z" stroke="#CC800E" stroke-width="3"/>
<path id="Right" d="M72.7713 62.9232C68.2878 70.6887 63.153 77.6585 58.4859 82.3135C53.8188 86.9685 49.9977 88.9314 47.8554 87.7743C45.7131 86.6172 45.4233 82.434 47.0493 76.1363C48.6751 69.8387 52.0848 61.9372 56.5353 54.1538C60.9857 46.3705 66.1161 39.3362 70.8082 34.5843C75.5004 29.8322 79.374 27.7477 81.5849 28.7848C83.7957 29.8219 84.1645 33.8968 82.6109 40.1212C81.0573 46.3456 77.7073 54.2151 73.2909 62.0144L72.7713 62.9232Z" fill="#CC800E"/>
<path id="Left" d="M40.7326 53.6999C45.216 61.4654 48.6846 69.3972 50.3824 75.7665C52.0801 82.1359 51.8695 86.4265 49.7963 87.7032C47.7231 88.9799 43.9554 87.1392 39.3144 82.5824C34.6734 78.0255 29.5354 71.1218 25.02 63.376C20.5047 55.6302 16.978 47.67 15.2088 41.2305C13.4395 34.7909 13.571 30.394 15.5746 28.998C17.5782 27.6018 21.2916 29.3199 25.9053 33.7776C30.519 38.2351 35.6591 45.0711 40.2053 52.7954L40.7326 53.6999Z" fill="#CC800E"/>
<path id="center" d="M58.9998 51.9417C58.9998 61.5491 57.9365 70.7671 56.0417 77.5866C54.1469 84.4061 51.5741 88.2745 48.8842 88.3484C46.1942 88.4224 43.6051 84.6961 41.681 77.9817C39.757 71.2672 38.6541 62.1088 38.6127 52.5026C38.5712 42.8964 39.5946 33.6211 41.4598 26.6981C43.325 19.7751 45.8807 15.7657 48.57 15.5437C51.2595 15.3217 53.8643 18.9051 55.817 25.5129C57.7698 32.1208 58.9121 41.2173 58.995 50.8201L58.9998 51.9417Z" fill="#CC800E"/>
</g>
</g>
<defs>
<clipPath id="clip0">
<rect width="100" height="100" fill="white"/>
</clipPath>
</defs>
</svg>
